<svg width="56" height="51" viewBox="0 0 56 51" fill="none" xmlns="http://www.w3.org/2000/svg">
<path d="M50.5 11.0005C50.5 9.55912 50.4968 8.62779 50.439 7.91944C50.3835 7.24048 50.2895 6.98835 50.2266 6.86476C49.987 6.39483 49.6052 6.01305 49.1353 5.77345C49.0117 5.71047 48.7595 5.61654 48.0806 5.56105C47.3722 5.50317 46.4409 5.50001 44.9995 5.50001H44.001C41.1599 5.50001 39.1782 5.50103 37.6362 5.62696C36.1233 5.75057 35.2526 5.98242 34.5943 6.31788C33.1837 7.03682 32.0368 8.18369 31.3179 9.59425C30.9824 10.2526 30.7506 11.1233 30.627 12.6362C30.564 13.4074 30.5333 14.2883 30.5171 15.3316L30.5 19.001V40.7759C31.7497 39.7669 33.1813 39.0066 34.7188 38.5396C36.5785 37.9748 38.5875 38 41.562 38H44.9995C46.4409 38 47.3722 37.9969 48.0806 37.939C48.7595 37.8835 49.0117 37.7895 49.1353 37.7266C49.6052 37.487 49.987 37.1052 50.2266 36.6353C50.2895 36.5117 50.3835 36.2595 50.439 35.5806C50.4968 34.8722 50.5 33.9409 50.5 32.4995V11.0005ZM5.50001 32.4995C5.50001 33.9409 5.50317 34.8722 5.56105 35.5806C5.61654 36.2595 5.71047 36.5117 5.77345 36.6353C6.01305 37.1052 6.39483 37.487 6.86476 37.7266C6.98835 37.7895 7.24048 37.8835 7.91944 37.939C8.62779 37.9969 9.55912 38 11.0005 38H14.438C17.4125 38 19.4215 37.9748 21.2813 38.5396C22.8187 39.0066 24.2504 39.7669 25.5 40.7759V19.001C25.5 16.1599 25.499 14.1782 25.3731 12.6362C25.2494 11.1233 25.0176 10.2526 24.6821 9.59425C23.9632 8.18369 22.8163 7.03682 21.4058 6.31788C20.7474 5.98242 19.8767 5.75057 18.3638 5.62696C16.8218 5.50103 14.8401 5.50001 11.999 5.50001H11.0005C9.55912 5.50001 8.62779 5.50317 7.91944 5.56105C7.24048 5.61654 6.98835 5.71047 6.86476 5.77345C6.39483 6.01305 6.01305 6.39483 5.77345 6.86476C5.71047 6.98835 5.61654 7.24048 5.56105 7.91944C5.50317 8.62779 5.50001 9.55912 5.50001 11.0005V32.4995ZM55.5 32.4995C55.5 33.8584 55.5027 35.0291 55.4243 35.9883C55.3435 36.9764 55.164 37.96 54.6821 38.9058C53.9632 40.3163 52.8163 41.4632 51.4058 42.1821C50.46 42.664 49.4764 42.8435 48.4883 42.9243C47.5291 43.0027 46.3584 43 44.9995 43H41.562C38.2764 43 37.1531 43.0266 36.1714 43.3247C35.2286 43.6112 34.3521 44.0809 33.5908 44.7066C32.7981 45.3581 32.1521 46.2763 30.3291 49.0108L30.0801 49.3867C29.6164 50.0822 28.8359 50.5 28 50.5C27.1641 50.5 26.3836 50.0822 25.9199 49.3867L25.6709 49.0108C23.848 46.2763 23.2019 45.3581 22.4092 44.7066C21.6479 44.0809 20.7714 43.6112 19.8286 43.3247C18.8469 43.0266 17.7237 43 14.438 43H11.0005C9.64162 43 8.47091 43.0027 7.51173 42.9243C6.52358 42.8435 5.53999 42.664 4.59425 42.1821C3.18369 41.4632 2.03682 40.3163 1.31788 38.9058C0.836002 37.96 0.656472 36.9764 0.575695 35.9883C0.497327 35.0291 0.500011 33.8584 0.500011 32.4995V11.0005C0.500011 9.64162 0.497327 8.47091 0.575695 7.51173C0.656472 6.52358 0.836002 5.53999 1.31788 4.59425C2.03682 3.18369 3.18369 2.03682 4.59425 1.31788C5.53999 0.836002 6.52358 0.656472 7.51173 0.575695C8.47091 0.497327 9.64162 0.500011 11.0005 0.500011H11.999C14.758 0.500011 16.9786 0.497575 18.7715 0.644054C20.5933 0.792898 22.1934 1.10817 23.6738 1.86232C25.3833 2.73334 26.8604 3.98247 28 5.50245C29.1396 3.98247 30.6167 2.73334 32.3262 1.86232C33.8067 1.10817 35.4068 0.792898 37.2285 0.644054C39.0214 0.497575 41.242 0.500011 44.001 0.500011H44.9995C46.3584 0.500011 47.5291 0.497327 48.4883 0.575695C49.4764 0.656472 50.46 0.836002 51.4058 1.31788C52.8163 2.03682 53.9632 3.18369 54.6821 4.59425C55.164 5.53999 55.3435 6.52358 55.4243 7.51173C55.5027 8.47091 55.5 9.64162 55.5 11.0005V32.4995Z" fill="url(#paint0_linear_20_76)" stroke="black" stroke-linecap="round" stroke-linejoin="round"/>
<defs>
<linearGradient id="paint0_linear_20_76" x1="8.66369" y1="41.2948" x2="43.0579" y2="7.30029" gradientUnits="userSpaceOnUse">
<stop stop-color="#F7E93F"/>
<stop offset="0.5112" stop-color="#FB09B4"/>
<stop offset="1" stop-color="#9100F8"/>
</linearGradient>
</defs>
</svg>
